<?xml version="1.0" standalone="no"?>
<!DOCTYPE svg PUBLIC "-//W3C//DTD SVG 20010904//EN"
 "http://www.w3.org/TR/2001/REC-SVG-20010904/DTD/svg10.dtd">
<svg version="1.0" xmlns="http://www.w3.org/2000/svg"
 width="607.000000pt" height="603.000000pt" viewBox="0 0 607.000000 603.000000"
 preserveAspectRatio="xMidYMid meet">

<g transform="translate(0.000000,603.000000) scale(0.100000,-0.100000)"
fill="#ffffff" stroke="white" stroke-width="100">
<path d="M2070 5645 c-30 -17 -156 -90 -280 -162 -124 -72 -241 -139 -260
-150 -175 -99 -308 -178 -322 -191 -17 -14 -18 -52 -18 -536 l0 -521 -52 -32
c-29 -17 -71 -41 -93 -53 -22 -12 -80 -46 -130 -75 -99 -58 -249 -145 -482
-280 l-153 -88 0 -538 0 -538 28 -19 c15 -11 74 -46 132 -79 58 -33 182 -104
275 -158 94 -54 186 -107 205 -118 38 -21 210 -121 247 -144 l23 -13 2 -527 3
-527 70 -41 c39 -23 93 -54 120 -69 28 -16 86 -49 130 -75 44 -26 145 -85 225
-131 80 -46 198 -114 262 -152 64 -37 120 -68 124 -68 7 0 94 49 329 185 83
48 248 143 367 212 l217 125 208 -120 c374 -214 547 -315 583 -337 19 -12 54
-32 78 -44 51 -26 23 -37 292 119 308 179 426 247 556 321 67 38 124 76 128
84 3 9 6 248 6 532 0 284 1 517 2 518 2 0 55 31 118 67 63 36 133 76 155 88
22 12 94 54 160 92 66 39 167 97 225 131 58 33 137 79 175 101 l70 41 3 540 2
541 -87 51 c-49 28 -149 86 -223 129 -210 121 -354 204 -482 279 l-118 68 -1
466 c-1 256 -1 492 -1 523 0 40 -5 61 -17 71 -13 11 -131 81 -264 156 -18 10
-104 60 -192 111 -365 210 -454 260 -465 260 -7 0 -161 -86 -344 -191 -182
-106 -349 -202 -371 -215 -22 -12 -71 -41 -110 -63 -38 -23 -77 -41 -86 -41
-15 0 -173 89 -552 311 -65 38 -120 69 -122 69 -2 0 -45 25 -94 54 -149 91
-137 88 -201 51z m199 -104 c75 -44 262 -152 416 -241 154 -89 284 -166 289
-170 10 -10 -9 -22 -309 -195 -295 -169 -495 -285 -517 -299 -19 -12 -23 -10
-178 80 -58 33 -170 98 -250 144 -80 46 -181 104 -225 130 -44 26 -113 66
-153 90 -67 38 -72 43 -55 55 17 12 83 50 448 260 335 194 390 225 394 225 2
0 65 -36 140 -79z m1661 -434 c0 -458 -1 -493 -17 -503 -19 -12 -138 -81 -343
-199 -69 -39 -213 -123 -320 -185 -107 -62 -215 -124 -240 -138 -25 -14 -49
-28 -55 -32 -5 -4 -86 -51 -180 -105 -93 -54 -228 -132 -300 -173 -207 -119
-317 -182 -321 -182 -2 0 -3 224 -2 497 l3 497 180 104 c99 57 295 170 435
251 140 81 343 198 450 260 107 62 258 149 335 194 77 44 187 109 245 143 58
35 111 63 118 63 9 1 12 -104 12 -492z m408 292 c191 -111 382 -221 425 -246
l77 -45 0 -494 c0 -289 -4 -494 -9 -494 -5 0 -53 26 -108 58 -54 32 -120 71
-148 86 -27 16 -90 52 -140 81 -49 29 -153 89 -230 134 -77 44 -159 92 -182
105 l-43 26 0 495 c0 272 2 495 5 495 3 0 162 -91 353 -201z m-2730 -530 c191
-110 380 -220 419 -242 l73 -42 0 -1022 c0 -563 -2 -1023 -5 -1023 -2 0 -46
24 -97 54 -51 29 -138 79 -193 111 -55 32 -158 92 -230 133 -71 42 -175 101
-230 133 l-100 57 -3 1021 c-1 691 1 1021 8 1021 6 0 167 -90 358 -201z m2557
-424 c94 -54 253 -147 355 -205 102 -59 390 -225 640 -370 250 -145 476 -275
502 -289 26 -14 48 -30 48 -36 0 -5 -12 -17 -28 -26 -15 -8 -70 -40 -122 -71
-550 -318 -689 -398 -698 -398 -5 0 -71 36 -148 81 -76 44 -200 116 -274 159
-618 356 -899 519 -1212 700 -71 41 -128 77 -128 81 0 4 39 30 88 57 48 28
143 82 212 122 604 351 551 322 575 306 11 -7 97 -57 190 -111z m-1021 -463
c55 -32 160 -93 231 -134 72 -41 204 -118 295 -170 91 -52 186 -108 213 -124
l47 -29 0 -507 0 -508 -37 -24 c-21 -14 -123 -74 -228 -133 -104 -60 -285
-164 -401 -231 -116 -67 -217 -122 -225 -122 -13 0 -96 46 -299 165 -58 34
-125 73 -150 87 -128 72 -388 223 -412 240 l-28 19 0 509 0 508 73 42 c39 24
194 113 342 198 149 86 315 182 370 214 55 32 102 58 104 58 2 0 49 -26 105
-58z m-1954 -457 l0 -494 -67 -39 c-38 -22 -126 -73 -198 -115 -71 -41 -228
-132 -348 -202 -120 -69 -225 -129 -233 -132 -12 -4 -14 61 -12 492 l3 498
100 58 c55 31 244 141 420 243 176 102 323 185 328 186 4 0 7 -223 7 -495z
m3220 -275 c107 -62 247 -143 310 -179 l115 -66 3 -1022 c1 -601 -2 -1023 -7
-1023 -5 0 -71 37 -147 81 -77 45 -184 107 -239 139 -55 32 -181 105 -280 162
l-180 105 -5 999 c-3 549 -4 1011 -2 1025 l3 26 117 -67 c64 -37 205 -118 312
-180z m1340 -247 c0 -269 -4 -493 -8 -499 -4 -5 -27 -21 -52 -35 -25 -14 -121
-70 -215 -124 -93 -54 -186 -107 -205 -118 -19 -10 -76 -43 -126 -73 -207
-121 -242 -140 -249 -132 -2 2 -5 224 -5 493 l-1 489 163 94 c418 242 567 328
618 358 30 18 61 33 68 33 9 1 12 -103 12 -486z m-4411 -84 c36 -22 73 -44 81
-49 8 -6 22 -13 30 -17 8 -4 62 -34 120 -68 58 -34 164 -95 235 -137 72 -41
189 -109 260 -150 72 -42 220 -127 330 -190 110 -64 245 -141 300 -173 55 -32
140 -81 189 -109 49 -28 89 -55 89 -61 0 -5 -55 -42 -124 -82 -68 -40 -173
-101 -234 -136 -238 -139 -482 -277 -488 -277 -7 0 -210 116 -462 263 -66 38
-165 95 -220 127 -55 32 -158 91 -230 133 -71 41 -276 159 -455 262 -351 203
-404 235 -398 240 3 3 206 120 308 178 38 21 220 127 419 243 141 83 116 83
250 3z m2591 -972 l0 -493 -87 -51 c-81 -46 -215 -123 -538 -310 -166 -96
-356 -206 -510 -295 -71 -41 -175 -101 -230 -133 -55 -32 -170 -98 -255 -147
l-155 -89 -3 488 c-1 268 0 493 2 499 2 5 73 50 157 99 85 48 190 109 234 135
70 41 325 189 737 426 70 41 142 82 160 92 94 53 426 247 443 258 46 32 45 43
45 -479z m-2547 -108 c67 -39 167 -97 222 -129 55 -32 154 -89 220 -127 66
-39 155 -89 198 -113 l77 -44 0 -499 0 -499 -42 24 c-44 25 -315 182 -468 271
-47 27 -145 83 -217 125 l-133 75 0 494 c0 342 3 493 11 493 6 0 65 -32 132
-71z m2782 -554 c94 -54 187 -109 207 -121 21 -13 40 -24 42 -24 3 0 58 -31
123 -69 65 -38 151 -87 191 -110 39 -23 72 -46 72 -50 0 -4 -66 -47 -147 -93
-82 -47 -267 -154 -411 -238 -145 -84 -272 -155 -283 -157 -17 -5 -83 31 -651
360 -209 121 -208 121 -208 129 0 4 35 27 78 51 42 24 154 88 247 142 535 310
527 306 549 291 12 -7 98 -57 191 -111z"/>
</g>
</svg>
